<svg width="22" height="21" viewBox="0 0 22 21" fill="none" xmlns="http://www.w3.org/2000/svg">
<path d="M5.92627 8.55469C3.87061 8.55469 2.59131 7.1582 2.59131 4.8877C2.59131 2.65137 3.86572 1.27441 5.90186 1.27441C7.22998 1.27441 8.28955 1.91895 8.68018 2.82715C8.75342 2.99316 8.77295 3.12012 8.77295 3.24707C8.77295 3.5791 8.55322 3.79883 8.21631 3.79883C7.94287 3.79883 7.75244 3.67676 7.59619 3.39355C7.24463 2.69531 6.67334 2.34375 5.90674 2.34375C4.63721 2.34375 3.88037 3.28613 3.88037 4.87305C3.88037 6.49414 4.67139 7.48535 5.94092 7.48535C7.00537 7.48535 7.74268 6.81152 7.76221 5.8252L7.76709 5.70801H6.51709C6.20459 5.70801 5.98975 5.52246 5.98975 5.22461C5.98975 4.92676 6.20459 4.74609 6.51709 4.74609H8.37256C8.76318 4.74609 8.99756 4.99023 8.99756 5.40039V5.54688C8.99756 7.37793 7.87451 8.55469 5.92627 8.55469ZM10.5405 2.53418C10.1646 2.53418 9.8667 2.24121 9.8667 1.875C9.8667 1.50391 10.1646 1.21582 10.5405 1.21582C10.9214 1.21582 11.2192 1.50391 11.2192 1.875C11.2192 2.24121 10.9214 2.53418 10.5405 2.53418ZM10.5405 8.53516C10.1694 8.53516 9.93506 8.29102 9.93506 7.89551V3.79883C9.93506 3.4082 10.1694 3.15918 10.5405 3.15918C10.9116 3.15918 11.1509 3.4082 11.1509 3.80371V7.89551C11.1509 8.29102 10.9116 8.53516 10.5405 8.53516ZM14.4468 2.72949C14.2466 2.72949 14.1294 2.63184 14.1294 2.48047C14.1294 2.3584 14.188 2.28027 14.3296 2.1875C14.5298 2.06543 14.6226 1.91895 14.6226 1.72363C14.6226 1.49902 14.437 1.34766 14.144 1.34766C14.0854 1.34766 14.0317 1.35742 13.9731 1.35742C13.9487 1.3623 13.9194 1.36719 13.8853 1.36719C13.7095 1.36719 13.6021 1.26953 13.6021 1.11328C13.6021 1.03027 13.6216 0.961914 13.6753 0.90332C13.7827 0.78125 14.0024 0.717773 14.3149 0.717773C14.9937 0.717773 15.4087 1.08398 15.4087 1.66992C15.4087 2.09473 15.1011 2.51953 14.73 2.6709C14.6372 2.70996 14.5444 2.72949 14.4468 2.72949ZM13.6899 8.52051C12.689 8.52051 11.9614 7.89062 11.9614 6.95801C11.9614 6.04004 12.6694 5.48828 13.9292 5.41016L15.3013 5.33203V4.96094C15.3013 4.41895 14.9351 4.10645 14.3345 4.10645C13.8608 4.10645 13.5532 4.26758 13.2505 4.71191C13.1235 4.87793 12.9624 4.95605 12.7573 4.95605C12.4595 4.95605 12.2446 4.76074 12.2446 4.46777C12.2446 4.35547 12.2739 4.24805 12.3276 4.13574C12.5913 3.53516 13.3921 3.1543 14.3833 3.1543C15.6675 3.1543 16.5024 3.83301 16.5024 4.87305V7.9248C16.5024 8.31543 16.2534 8.53516 15.9116 8.53516C15.5796 8.53516 15.3501 8.33496 15.3306 7.97363V7.6123H15.3062C15.0083 8.17383 14.3589 8.52051 13.6899 8.52051ZM14.061 7.60254C14.7446 7.60254 15.3013 7.14355 15.3013 6.51855V6.12305L14.1001 6.19629C13.5142 6.23535 13.1772 6.49902 13.1772 6.90918C13.1772 7.33398 13.5337 7.60254 14.061 7.60254ZM18.1187 2.53418C17.7427 2.53418 17.4448 2.24121 17.4448 1.875C17.4448 1.50391 17.7427 1.21582 18.1187 1.21582C18.4995 1.21582 18.7974 1.50391 18.7974 1.875C18.7974 2.24121 18.4995 2.53418 18.1187 2.53418ZM18.1187 8.53516C17.7476 8.53516 17.5132 8.29102 17.5132 7.89551V3.79883C17.5132 3.4082 17.7476 3.15918 18.1187 3.15918C18.4897 3.15918 18.729 3.4082 18.729 3.80371V7.89551C18.729 8.29102 18.4897 8.53516 18.1187 8.53516ZM1.23877 20.5205C0.85791 20.5205 0.628418 20.2861 0.628418 19.8857L0.628418 13.958C0.628418 13.5527 0.877441 13.3086 1.28271 13.3086C1.56104 13.3086 1.73193 13.4062 1.93701 13.6846L5.21826 18.3281H5.26221L5.26221 13.9434C5.26221 13.543 5.4917 13.3086 5.86768 13.3086C6.24854 13.3086 6.47314 13.543 6.47314 13.9434L6.47314 19.8906C6.47314 20.291 6.24365 20.5205 5.8335 20.5205C5.54541 20.5205 5.37939 20.4277 5.1792 20.1445L1.88818 15.4961H1.84424V19.8857C1.84424 20.2861 1.61475 20.5205 1.23877 20.5205ZM8.24072 20.5352C7.88428 20.5352 7.63037 20.3057 7.63037 19.8955L7.63037 13.9189C7.63037 13.5332 7.85986 13.2939 8.23096 13.2939C8.60693 13.2939 8.83154 13.5332 8.83154 13.9189V16.1504H8.85596C9.13428 15.5205 9.70557 15.1641 10.4917 15.1641C11.6343 15.1641 12.3032 15.916 12.3032 17.1025V19.8955C12.3032 20.3057 12.0493 20.5352 11.6929 20.5352C11.3364 20.5352 11.0874 20.3057 11.0874 19.8955V17.3516C11.0874 16.6289 10.7261 16.1943 10.0229 16.1943C9.29053 16.1943 8.84619 16.7021 8.84619 17.4639V19.8955C8.84619 20.3057 8.59717 20.5352 8.24072 20.5352ZM16.8638 13.04C16.6538 13.04 16.478 12.8887 16.478 12.708C16.478 12.6152 16.5024 12.5469 16.5562 12.4688L17.1372 11.6533C17.2886 11.4482 17.3862 11.3848 17.562 11.3848C17.8013 11.3848 17.9673 11.5361 17.9673 11.7607C17.9673 11.8584 17.9331 11.9512 17.8501 12.0488L17.2397 12.8203C17.0981 12.9912 17.0249 13.04 16.8638 13.04ZM14.4028 14.6123C14.1929 14.6123 14.0415 14.4658 14.0415 14.2607C14.0415 14.1631 14.0806 14.0801 14.1685 13.9775L14.8618 13.2354C15.0181 13.0547 15.1841 12.9863 15.4429 12.9863C15.7017 12.9863 15.8726 13.0547 16.0239 13.2354L16.7173 13.9775C16.8101 14.0801 16.8491 14.1631 16.8491 14.2607C16.8491 14.4658 16.6929 14.6123 16.4829 14.6123C16.3462 14.6123 16.2583 14.5635 16.1167 14.4023L15.4624 13.6846H15.4282L14.7739 14.4023C14.6274 14.5635 14.5444 14.6123 14.4028 14.6123ZM14.7983 20.5205C13.7974 20.5205 13.0698 19.8906 13.0698 18.958C13.0698 18.04 13.7778 17.4883 15.0376 17.4102L16.4097 17.332V16.9609C16.4097 16.4189 16.0435 16.1064 15.4429 16.1064C14.9692 16.1064 14.6616 16.2676 14.3589 16.7119C14.2319 16.8779 14.0708 16.9561 13.8657 16.9561C13.5679 16.9561 13.353 16.7607 13.353 16.4678C13.353 16.3555 13.3823 16.248 13.436 16.1357C13.6997 15.5352 14.5005 15.1543 15.4917 15.1543C16.7759 15.1543 17.6108 15.833 17.6108 16.873V19.9248C17.6108 20.3154 17.3618 20.5352 17.02 20.5352C16.688 20.5352 16.4585 20.335 16.439 19.9736V19.6123H16.4146C16.1167 20.1738 15.4673 20.5205 14.7983 20.5205ZM15.1694 19.6025C15.853 19.6025 16.4097 19.1436 16.4097 18.5186V18.123L15.2085 18.1963C14.6226 18.2354 14.2856 18.499 14.2856 18.9092C14.2856 19.334 14.6421 19.6025 15.1694 19.6025ZM18.9292 19.1582V16.1992H18.6021C18.2993 16.1992 18.1138 16.0186 18.1138 15.7256C18.1138 15.4375 18.2993 15.2617 18.6021 15.2617H18.9292V14.5732C18.9292 14.1826 19.1636 13.9385 19.5396 13.9385C19.9106 13.9385 20.145 14.1826 20.145 14.5732V15.2617H20.7065C21.0093 15.2617 21.1948 15.4375 21.1948 15.7256C21.1948 16.0186 21.0093 16.1992 20.7065 16.1992H20.145V18.8945C20.145 19.2852 20.2817 19.4561 20.6333 19.4854L20.7212 19.4951C21.0435 19.5244 21.2095 19.6611 21.2095 19.9443C21.2095 20.3008 20.897 20.4912 20.3403 20.4912H20.2915C19.3882 20.4912 18.9292 20.042 18.9292 19.1582Z" fill="white"/>
</svg>
